<?xml version="1.0" standalone="no"?>
<!DOCTYPE svg PUBLIC "-//W3C//DTD SVG 20010904//EN"
 "http://www.w3.org/TR/2001/REC-SVG-20010904/DTD/svg10.dtd">
<svg version="1.0" xmlns="http://www.w3.org/2000/svg"
 width="600.000000pt" height="600.000000pt" viewBox="0 0 600.000000 600.000000"
 preserveAspectRatio="xMidYMid meet">

<g transform="translate(0.000000,600.000000) scale(0.100000,-0.100000)"
fill="#000000" stroke="none">
<path d="M2855 5903 c-727 -31 -1454 -359 -1960 -884 -331 -343 -574 -756
-711 -1206 -44 -149 -89 -374 -105 -528 -16 -157 -16 -483 0 -615 159 -1333
1210 -2396 2537 -2564 368 -47 748 -23 1109 69 627 160 1216 554 1608 1076
291 388 470 814 554 1324 22 137 26 623 5 775 -122 901 -627 1671 -1402 2140
-337 204 -772 351 -1167 394 -130 15 -358 24 -468 19z m343 -968 c387 -41 738
-174 1032 -392 95 -71 289 -265 361 -363 150 -202 256 -453 298 -705 17 -105
20 -112 60 -155 91 -97 180 -254 223 -390 20 -66 23 -94 22 -230 0 -190 -17
-260 -104 -435 -76 -153 -162 -273 -294 -407 -510 -517 -1345 -798 -2106 -708
-568 68 -1130 330 -1500 700 -207 207 -340 422 -395 635 -79 308 3 592 242
846 20 22 36 50 39 70 26 185 58 303 122 449 288 660 972 1081 1785 1099 37 0
134 -6 215 -14z"/>
<path d="M2835 4794 c-16 -2 -73 -9 -125 -15 -173 -20 -391 -86 -575 -173
-187 -89 -341 -199 -490 -351 -241 -246 -369 -504 -420 -850 l-16 -109 -68
-71 c-350 -361 -297 -816 149 -1265 293 -296 710 -517 1175 -624 646 -148
1367 -3 1950 392 232 158 445 392 548 605 164 334 117 626 -146 913 l-53 59
-13 99 c-46 361 -217 681 -492 924 -299 265 -676 426 -1079 462 -109 9 -279
11 -345 4z m365 -159 c535 -63 988 -341 1238 -759 94 -157 152 -355 159 -546
6 -135 6 -135 37 -170 147 -163 206 -366 161 -545 -83 -323 -441 -585 -1000
-730 -247 -64 -394 -83 -715 -92 -336 -9 -628 21 -895 92 -450 118 -754 296
-913 534 -133 198 -145 368 -42 576 21 44 64 108 95 142 l55 61 0 102 c0 224
76 452 224 670 77 113 261 293 386 376 354 236 787 339 1210 289z m-1702
-2581 c42 -26 90 -55 106 -65 l29 -17 -41 -21 -41 -21 -68 59 c-73 62 -136
128 -194 201 -61 77 -55 76 40 -8 50 -45 127 -102 169 -128z m3215 181 c-35
-62 -255 -290 -292 -303 -5 -2 -23 6 -41 16 l-32 20 73 47 c97 62 216 154 258
199 37 39 47 45 34 21z m-2825 -376 c118 -44 282 -92 373 -110 35 -6 65 -13
67 -15 2 -1 -9 -20 -23 -43 -15 -23 -30 -61 -33 -86 -3 -30 -9 -45 -19 -45
-44 0 -320 124 -455 203 -142 85 -137 77 -86 114 24 18 50 30 58 27 8 -4 61
-23 118 -45z m2377 24 c25 -16 45 -30 45 -34 0 -10 -201 -126 -300 -173 -111
-52 -267 -116 -285 -116 -7 0 -15 18 -19 43 -4 23 -18 62 -31 86 -14 24 -24
45 -23 46 2 0 73 18 159 39 86 21 210 60 275 86 66 26 122 48 126 49 4 1 28
-11 53 -26z m-1725 -182 c202 -26 395 -34 603 -22 114 6 250 16 302 23 85 10
97 9 113 -6 32 -28 74 -114 70 -143 -3 -25 -10 -29 -73 -45 -114 -30 -291 -57
-442 -68 -206 -15 -458 9 -675 62 -77 19 -88 25 -88 43 0 60 69 180 98 171 9
-3 51 -9 92 -15z"/>
<path d="M1929 3910 c-19 -10 -42 -26 -50 -36 -13 -16 -12 -17 16 -8 17 5 64
9 105 9 65 0 85 -5 138 -31 34 -17 62 -28 62 -24 0 10 -83 87 -107 99 -34 17
-123 13 -164 -9z"/>
<path d="M3885 3914 c-31 -17 -105 -83 -105 -94 0 -4 27 7 59 23 74 36 166 46
229 24 53 -19 54 -5 1 30 -51 34 -138 42 -184 17z"/>
<path d="M1880 3674 c-98 -36 -164 -98 -214 -204 -29 -60 -31 -73 -31 -170 0
-108 9 -141 62 -223 17 -27 17 -29 1 -38 -28 -16 -21 -29 16 -29 18 0 54 -11
79 -25 80 -45 130 -54 289 -52 80 1 150 6 155 10 4 5 -3 16 -16 26 l-24 18 44
54 c75 91 94 146 94 269 0 97 -2 110 -31 170 -35 74 -107 149 -174 182 -60 29
-186 35 -250 12z m328 -198 c13 -13 26 -40 29 -62 4 -33 1 -45 -22 -72 -74
-89 -208 17 -148 118 32 54 96 62 141 16z"/>
<path d="M3875 3672 c-101 -42 -154 -94 -203 -199 -24 -51 -27 -70 -27 -163 0
-123 19 -177 94 -269 24 -30 40 -56 34 -58 -23 -8 -47 -32 -40 -39 5 -5 74
-10 155 -11 161 -3 221 8 302 54 25 14 58 25 73 24 24 -1 28 2 22 19 -4 13 5
44 26 86 28 56 34 80 37 155 9 190 -84 342 -246 401 -61 22 -174 22 -227 0z
m-5 -177 c16 -9 37 -29 46 -47 32 -62 -15 -138 -85 -138 -43 0 -60 9 -76 41
-25 48 -19 87 19 125 38 38 54 41 96 19z"/>
<path d="M2628 2870 c-10 -6 -18 -20 -18 -30 0 -30 55 -53 130 -54 59 -1 65 1
68 20 7 48 -129 95 -180 64z"/>
<path d="M3223 2860 c-75 -46 -59 -86 32 -77 88 9 138 50 103 85 -19 19 -99
14 -135 -8z"/>
<path d="M2260 2730 c-34 -64 78 -203 218 -273 l85 -42 116 0 c129 0 183 14
265 66 l47 29 28 -19 c49 -35 138 -69 210 -80 205 -32 420 80 486 254 13 33
14 48 6 64 -15 28 -35 18 -65 -34 -52 -87 -148 -151 -274 -183 -108 -26 -223
3 -349 89 l-41 29 -59 -39 c-219 -144 -449 -104 -605 106 -42 58 -52 63 -68
33z"/>
</g>
</svg>
